<?xml version="1.0" encoding="UTF-8" standalone="no"?>
<!DOCTYPE svg PUBLIC "-//W3C//DTD SVG 1.1//EN"
 "http://www.w3.org/Graphics/SVG/1.1/DTD/svg11.dtd">
<!-- Generated by graphviz version 2.40.1 (20161225.0304)
 -->
<!-- Title: ER Pages: 1 -->
<svg width="2275pt" height="1578pt"
 viewBox="0.00 0.00 2274.74 1577.94" xmlns="http://www.w3.org/2000/svg" xmlns:xlink="http://www.w3.org/1999/xlink">
<g id="graph0" class="graph" transform="scale(1 1) rotate(0) translate(4 1573.9394)">
<title>ER</title>
<polygon fill="#ffffff" stroke="transparent" points="-4,4 -4,-1573.9394 2270.743,-1573.9394 2270.743,4 -4,4"/>
<!-- users -->
<g id="node1" class="node">
<title>users</title>
<polygon fill="#f9f9f9" stroke="#000000" points="173.3384,-1462.7049 65.3384,-1462.7049 65.3384,-1426.7049 173.3384,-1426.7049 173.3384,-1462.7049"/>
<text text-anchor="middle" x="119.3384" y="-1440.5049" font-family="Helvetica,sans-Serif" font-size="14.00" fill="#000000">users</text>
</g>
<!-- u_id -->
<g id="node7" class="node">
<title>u_id</title>
<ellipse fill="none" stroke="#000000" cx="910.586" cy="-789.029" rx="54" ry="15.68"/>
<text text-anchor="middle" x="910.586" y="-785.429" font-family="Helvetica,sans-Serif" font-size="12.00" fill="#000000">id_user</text>
</g>
<!-- users&#45;&#45;u_id -->
<g id="edge1" class="edge">
<title>users&#45;&#45;u_id</title>
<path fill="none" stroke="#000000" d="M142.1179,-1426.5881C206.0715,-1375.6556 392.5664,-1226.6553 545.1631,-1099.9952 680.4126,-987.7337 840.9569,-849.2776 893.2192,-804.0704"/>
</g>
<!-- u_username -->
<g id="node8" class="node">
<title>u_username</title>
<ellipse fill="none" stroke="#000000" cx="1192.4823" cy="-743.2109" rx="54" ry="15.68"/>
<text text-anchor="middle" x="1192.4823" y="-739.6109" font-family="Helvetica,sans-Serif" font-size="12.00" fill="#000000">username</text>
</g>
<!-- users&#45;&#45;u_username -->
<g id="edge2" class="edge">
<title>users&#45;&#45;u_username</title>
<path fill="none" stroke="#000000" d="M142.9711,-1426.6371C243.1391,-1350.4845 643.8431,-1050.1591 999.2434,-844.8557 1057.1768,-811.3895 1127.0807,-775.7536 1164.9106,-756.8479"/>
</g>
<!-- u_pass -->
<g id="node9" class="node">
<title>u_pass</title>
<ellipse fill="none" stroke="#000000" cx="1057.9719" cy="-681.8258" rx="54" ry="15.68"/>
<text text-anchor="middle" x="1057.9719" y="-678.2258" font-family="Helvetica,sans-Serif" font-size="12.00" fill="#000000">password</text>
</g>
<!-- users&#45;&#45;u_pass -->
<g id="edge3" class="edge">
<title>users&#45;&#45;u_pass</title>
<path fill="none" stroke="#000000" d="M146.5485,-1426.691C255.5794,-1353.9007 669.2905,-1071.8422 966.1853,-789.1184 997.6063,-759.1971 1029.4559,-719.3609 1046.1208,-697.6239"/>
</g>
<!-- u_name -->
<g id="node10" class="node">
<title>u_name</title>
<ellipse fill="none" stroke="#000000" cx="869.755" cy="-963.7098" rx="54" ry="15.68"/>
<text text-anchor="middle" x="869.755" y="-960.1098" font-family="Helvetica,sans-Serif" font-size="12.00" fill="#000000">name</text>
</g>
<!-- users&#45;&#45;u_name -->
<g id="edge4" class="edge">
<title>users&#45;&#45;u_name</title>
<path fill="none" stroke="#000000" d="M147.8393,-1426.4367C268.7148,-1348.959 737.7923,-1048.2941 846.9607,-978.3203"/>
</g>
<!-- u_role -->
<g id="node11" class="node">
<title>u_role</title>
<ellipse fill="none" stroke="#000000" cx="1038.4817" cy="-857.2112" rx="54" ry="15.68"/>
<text text-anchor="middle" x="1038.4817" y="-853.6112" font-family="Helvetica,sans-Serif" font-size="12.00" fill="#000000">role</text>
</g>
<!-- users&#45;&#45;u_role -->
<g id="edge5" class="edge">
<title>users&#45;&#45;u_role</title>
<path fill="none" stroke="#000000" d="M142.2732,-1426.4714C228.8059,-1358.1928 545.0974,-1113.2693 830.8103,-951.2633 890.2013,-917.5873 963.8457,-886.5911 1005.5686,-869.9537"/>
</g>
<!-- u_status -->
<g id="node12" class="node">
<title>u_status</title>
<ellipse fill="none" stroke="#000000" cx="489.564" cy="-1099.8918" rx="54" ry="15.68"/>
<text text-anchor="middle" x="489.564" y="-1096.2918" font-family="Helvetica,sans-Serif" font-size="12.00" fill="#000000">status</text>
</g>
<!-- users&#45;&#45;u_status -->
<g id="edge6" class="edge">
<title>users&#45;&#45;u_status</title>
<path fill="none" stroke="#000000" d="M138.7221,-1426.6518C203.5913,-1366.2352 412.3962,-1171.7627 472.9559,-1115.3599"/>
</g>
<!-- memiliki -->
<g id="node43" class="node">
<title>memiliki</title>
<polygon fill="#eef2f3" stroke="#000000" points="1027.052,-1569.8398 967.9282,-1547.5394 1027.052,-1525.2389 1086.1758,-1547.5394 1027.052,-1569.8398"/>
<text text-anchor="middle" x="1027.052" y="-1543.9394" font-family="Helvetica,sans-Serif" font-size="12.00" fill="#000000">memiliki</text>
</g>
<!-- users&#45;&#45;memiliki -->
<g id="edge37" class="edge">
<title>users&#45;&#45;memiliki</title>
<path fill="none" stroke="#000000" d="M173.4057,-1447.5356C271.6841,-1453.1033 486.0248,-1467.1912 665.2489,-1492.4919 781.3218,-1508.8776 918.0118,-1530.2372 985.3114,-1540.8904"/>
<text text-anchor="middle" x="661.7516" y="-1479.8923" font-family="Times,serif" font-size="14.00" fill="#000000">1</text>
</g>
<!-- mencatat_kas -->
<g id="node44" class="node">
<title>mencatat_kas</title>
<polygon fill="#eef2f3" stroke="#000000" points="1164.7675,-882.9103 1099.572,-860.6099 1164.7675,-838.3094 1229.9631,-860.6099 1164.7675,-882.9103"/>
<text text-anchor="middle" x="1164.7675" y="-857.0099" font-family="Helvetica,sans-Serif" font-size="12.00" fill="#000000">mencatat</text>
</g>
<!-- users&#45;&#45;mencatat_kas -->
<g id="edge39" class="edge">
<title>users&#45;&#45;mencatat_kas</title>
<path fill="none" stroke="#000000" d="M151.7724,-1426.5836C310.1358,-1338.1039 1000.1522,-952.5827 1139.9943,-874.451"/>
<text text-anchor="middle" x="649.3288" y="-1150.8368" font-family="Times,serif" font-size="14.00" fill="#000000">1</text>
</g>
<!-- mencatat_op -->
<g id="node45" class="node">
<title>mencatat_op</title>
<polygon fill="#eef2f3" stroke="#000000" points="1867.4286,-1012.0657 1802.233,-989.7653 1867.4286,-967.4648 1932.6241,-989.7653 1867.4286,-1012.0657"/>
<text text-anchor="middle" x="1867.4286" y="-986.1653" font-family="Helvetica,sans-Serif" font-size="12.00" fill="#000000">mencatat</text>
</g>
<!-- users&#45;&#45;mencatat_op -->
<g id="edge41" class="edge">
<title>users&#45;&#45;mencatat_op</title>
<path fill="none" stroke="#000000" d="M173.5721,-1430.5906C439.9607,-1361.2631 1606.013,-1057.7986 1830.1037,-999.4791"/>
<text text-anchor="middle" x="1014.1996" y="-1215.1068" font-family="Times,serif" font-size="14.00" fill="#000000">1</text>
</g>
<!-- mencatat_ph -->
<g id="node46" class="node">
<title>mencatat_ph</title>
<polygon fill="#eef2f3" stroke="#000000" points="1566.7231,-1227.5906 1501.5276,-1205.2902 1566.7231,-1182.9897 1631.9187,-1205.2902 1566.7231,-1227.5906"/>
<text text-anchor="middle" x="1566.7231" y="-1201.6902" font-family="Helvetica,sans-Serif" font-size="12.00" fill="#000000">mencatat</text>
</g>
<!-- users&#45;&#45;mencatat_ph -->
<g id="edge43" class="edge">
<title>users&#45;&#45;mencatat_ph</title>
<path fill="none" stroke="#000000" d="M173.4057,-1435.7565C331.5868,-1409.5774 807.2029,-1330.8668 1201.887,-1265.5964 1317.6387,-1246.4541 1454.0505,-1223.9095 1522.6375,-1212.5752"/>
<text text-anchor="middle" x="844.8585" y="-1328.2726" font-family="Times,serif" font-size="14.00" fill="#000000">1</text>
</g>
<!-- capsters -->
<g id="node2" class="node">
<title>capsters</title>
<polygon fill="#f9f9f9" stroke="#000000" points="1460.107,-1558.0603 1352.107,-1558.0603 1352.107,-1522.0603 1460.107,-1522.0603 1460.107,-1558.0603"/>
<text text-anchor="middle" x="1406.107" y="-1535.8603" font-family="Helvetica,sans-Serif" font-size="14.00" fill="#000000">capsters</text>
</g>
<!-- c_id -->
<g id="node13" class="node">
<title>c_id</title>
<ellipse fill="none" stroke="#000000" cx="625.9016" cy="-1504.8132" rx="54" ry="15.68"/>
<text text-anchor="middle" x="625.9016" y="-1501.2132" font-family="Helvetica,sans-Serif" font-size="12.00" fill="#000000">id_capster</text>
</g>
<!-- capsters&#45;&#45;c_id -->
<g id="edge7" class="edge">
<title>capsters&#45;&#45;c_id</title>
<path fill="none" stroke="#000000" d="M1351.987,-1537.4203C1277.9235,-1533.8245 1140.8299,-1527.2292 1023.852,-1521.9394 900.7134,-1516.371 756.1212,-1510.2539 679.6511,-1507.0519"/>
</g>
<!-- c_name -->
<g id="node14" class="node">
<title>c_name</title>
<ellipse fill="none" stroke="#000000" cx="954.3737" cy="-1257.2241" rx="65.136" ry="15.68"/>
<text text-anchor="middle" x="954.3737" y="-1253.6241" font-family="Helvetica,sans-Serif" font-size="12.00" fill="#000000">nama_capster</text>
</g>
<!-- capsters&#45;&#45;c_name -->
<g id="edge8" class="edge">
<title>capsters&#45;&#45;c_name</title>
<path fill="none" stroke="#000000" d="M1377.1618,-1521.9374C1293.8169,-1469.7541 1054.3735,-1319.8353 978.0495,-1272.0478"/>
</g>
<!-- c_hp -->
<g id="node15" class="node">
<title>c_hp</title>
<ellipse fill="none" stroke="#000000" cx="755.8906" cy="-1138.8428" rx="54" ry="15.68"/>
<text text-anchor="middle" x="755.8906" y="-1135.2428" font-family="Helvetica,sans-Serif" font-size="12.00" fill="#000000">no_hp</text>
</g>
<!-- capsters&#45;&#45;c_hp -->
<g id="edge9" class="edge">
<title>capsters&#45;&#45;c_hp</title>
<path fill="none" stroke="#000000" d="M1363.2043,-1522.0153C1270.9946,-1482.1212 1049.203,-1380.1433 887.7068,-1257.1247 843.1908,-1223.215 795.3468,-1177.7372 771.4067,-1154.2787"/>
</g>
<!-- c_status -->
<g id="node16" class="node">
<title>c_status</title>
<ellipse fill="none" stroke="#000000" cx="1018.3291" cy="-1026.6549" rx="54" ry="15.68"/>
<text text-anchor="middle" x="1018.3291" y="-1023.0549" font-family="Helvetica,sans-Serif" font-size="12.00" fill="#000000">status</text>
</g>
<!-- capsters&#45;&#45;c_status -->
<g id="edge10" class="edge">
<title>capsters&#45;&#45;c_status</title>
<path fill="none" stroke="#000000" d="M1389.1312,-1522.0128C1350.3817,-1480.4552 1253.2075,-1374.1724 1181.1969,-1277.8781 1117.3823,-1192.5436 1051.3317,-1082.7806 1027.5473,-1042.4337"/>
</g>
<!-- menghasilkan -->
<g id="node47" class="node">
<title>menghasilkan</title>
<polygon fill="#eef2f3" stroke="#000000" points="1809.1506,-1532.5383 1719.1186,-1510.2378 1809.1506,-1487.9374 1899.1826,-1510.2378 1809.1506,-1532.5383"/>
<text text-anchor="middle" x="1809.1506" y="-1506.6378" font-family="Helvetica,sans-Serif" font-size="12.00" fill="#000000">menghasilkan</text>
</g>
<!-- capsters&#45;&#45;menghasilkan -->
<g id="edge45" class="edge">
<title>capsters&#45;&#45;menghasilkan</title>
<path fill="none" stroke="#000000" d="M1460.4632,-1536.0383C1532.7671,-1530.6883 1660.6453,-1521.2262 1739.8165,-1515.3681"/>
<text text-anchor="middle" x="1594.0646" y="-1530.0938" font-family="Times,serif" font-size="14.00" fill="#000000">1</text>
</g>
<!-- layanan -->
<g id="node3" class="node">
<title>layanan</title>
<polygon fill="#f9f9f9" stroke="#000000" points="544.5813,-816.2573 436.5813,-816.2573 436.5813,-780.2573 544.5813,-780.2573 544.5813,-816.2573"/>
<text text-anchor="middle" x="490.5813" y="-794.0573" font-family="Helvetica,sans-Serif" font-size="14.00" fill="#000000">layanan</text>
</g>
<!-- l_id -->
<g id="node17" class="node">
<title>l_id</title>
<ellipse fill="none" stroke="#000000" cx="117.3255" cy="-82.9349" rx="54" ry="15.68"/>
<text text-anchor="middle" x="117.3255" y="-79.3349" font-family="Helvetica,sans-Serif" font-size="12.00" fill="#000000">id_layanan</text>
</g>
<!-- layanan&#45;&#45;l_id -->
<g id="edge11" class="edge">
<title>layanan&#45;&#45;l_id</title>
<path fill="none" stroke="#000000" d="M481.1681,-780.2173C428.8755,-680.0018 174.7052,-192.8997 125.5613,-98.7183"/>
</g>
<!-- l_kode -->
<g id="node18" class="node">
<title>l_kode</title>
<ellipse fill="none" stroke="#000000" cx="64.1346" cy="-523.4351" rx="64.2695" ry="15.68"/>
<text text-anchor="middle" x="64.1346" y="-519.8351" font-family="Helvetica,sans-Serif" font-size="12.00" fill="#000000">kode_layanan</text>
</g>
<!-- layanan&#45;&#45;l_kode -->
<g id="edge12" class="edge">
<title>layanan&#45;&#45;l_kode</title>
<path fill="none" stroke="#000000" d="M462.601,-780.2255C383.5711,-729.2949 159.7096,-585.0281 87.1472,-538.2655"/>
</g>
<!-- l_nama -->
<g id="node19" class="node">
<title>l_nama</title>
<ellipse fill="none" stroke="#000000" cx="499.4574" cy="-307.2337" rx="66.9187" ry="15.68"/>
<text text-anchor="middle" x="499.4574" y="-303.6337" font-family="Helvetica,sans-Serif" font-size="12.00" fill="#000000">nama_layanan</text>
</g>
<!-- layanan&#45;&#45;l_nama -->
<g id="edge13" class="edge">
<title>layanan&#45;&#45;l_nama</title>
<path fill="none" stroke="#000000" d="M493.5674,-780.1595C499.7947,-741.0088 513.7393,-645.4656 515.5196,-564.7662 517.54,-473.1778 506.0828,-363.5779 501.3912,-323.1876"/>
</g>
<!-- l_harga -->
<g id="node20" class="node">
<title>l_harga</title>
<ellipse fill="none" stroke="#000000" cx="459.9205" cy="-564.6642" rx="54" ry="15.68"/>
<text text-anchor="middle" x="459.9205" y="-561.0642" font-family="Helvetica,sans-Serif" font-size="12.00" fill="#000000">harga</text>
</g>
<!-- layanan&#45;&#45;l_harga -->
<g id="edge14" class="edge">
<title>layanan&#45;&#45;l_harga</title>
<path fill="none" stroke="#000000" d="M488.1754,-779.9276C482.345,-735.508 467.5361,-622.6844 462.0272,-580.7142"/>
</g>
<!-- l_kat -->
<g id="node21" class="node">
<title>l_kat</title>
<ellipse fill="none" stroke="#000000" cx="77.1878" cy="-945.7912" rx="54" ry="15.68"/>
<text text-anchor="middle" x="77.1878" y="-942.1912" font-family="Helvetica,sans-Serif" font-size="12.00" fill="#000000">kategori</text>
</g>
<!-- layanan&#45;&#45;l_kat -->
<g id="edge15" class="edge">
<title>layanan&#45;&#45;l_kat</title>
<path fill="none" stroke="#000000" d="M439.8912,-816.3479C354.6208,-846.7796 184.6629,-907.435 111.7336,-933.4623"/>
</g>
<!-- l_status -->
<g id="node22" class="node">
<title>l_status</title>
<ellipse fill="none" stroke="#000000" cx="654.5861" cy="-15.8392" rx="54" ry="15.68"/>
<text text-anchor="middle" x="654.5861" y="-12.2392" font-family="Helvetica,sans-Serif" font-size="12.00" fill="#000000">status</text>
</g>
<!-- layanan&#45;&#45;l_status -->
<g id="edge16" class="edge">
<title>layanan&#45;&#45;l_status</title>
<path fill="none" stroke="#000000" d="M494.3939,-780.0686C516.71,-673.6055 630.1423,-132.4535 651.2147,-31.9232"/>
</g>
<!-- buku_kas -->
<g id="node4" class="node">
<title>buku_kas</title>
<polygon fill="#f9f9f9" stroke="#000000" points="1830.7182,-645.643 1722.7182,-645.643 1722.7182,-609.643 1830.7182,-609.643 1830.7182,-645.643"/>
<text text-anchor="middle" x="1776.7182" y="-623.443" font-family="Helvetica,sans-Serif" font-size="14.00" fill="#000000">buku_kas</text>
</g>
<!-- k_id -->
<g id="node23" class="node">
<title>k_id</title>
<ellipse fill="none" stroke="#000000" cx="1481.1376" cy="-42.6278" rx="54" ry="15.68"/>
<text text-anchor="middle" x="1481.1376" y="-39.0278" font-family="Helvetica,sans-Serif" font-size="12.00" fill="#000000">id_kas</text>
</g>
<!-- buku_kas&#45;&#45;k_id -->
<g id="edge17" class="edge">
<title>buku_kas&#45;&#45;k_id</title>
<path fill="none" stroke="#000000" d="M1770.9744,-609.546C1757.0828,-566.5939 1719.635,-455.5294 1676.7824,-367.8058 1616.0536,-243.4878 1523.3061,-104.3126 1491.9358,-58.3105"/>
</g>
<!-- k_tgl -->
<g id="node24" class="node">
<title>k_tgl</title>
<ellipse fill="none" stroke="#000000" cx="730.7158" cy="-823.3685" rx="54" ry="15.68"/>
<text text-anchor="middle" x="730.7158" y="-819.7685" font-family="Helvetica,sans-Serif" font-size="12.00" fill="#000000">tanggal</text>
</g>
<!-- buku_kas&#45;&#45;k_tgl -->
<g id="edge18" class="edge">
<title>buku_kas&#45;&#45;k_tgl</title>
<path fill="none" stroke="#000000" d="M1722.5869,-641.5421C1677.3572,-653.0629 1611.1274,-669.7178 1553.1177,-683.4647 1410.6058,-717.2368 1375.3775,-727.8179 1231.5797,-755.6102 1106.9619,-779.6955 1075.3054,-783.1801 949.6993,-801.4234 892.9818,-809.6612 827.5481,-815.7795 783.0849,-819.434"/>
</g>
<!-- k_uraian -->
<g id="node25" class="node">
<title>k_uraian</title>
<ellipse fill="none" stroke="#000000" cx="731.5257" cy="-557.6338" rx="54" ry="15.68"/>
<text text-anchor="middle" x="731.5257" y="-554.0338" font-family="Helvetica,sans-Serif" font-size="12.00" fill="#000000">uraian</text>
</g>
<!-- buku_kas&#45;&#45;k_uraian -->
<g id="edge19" class="edge">
<title>buku_kas&#45;&#45;k_uraian</title>
<path fill="none" stroke="#000000" d="M1722.6359,-626.1605C1619.9316,-623.142 1389.624,-615.4006 1196.1189,-601.9009 1045.1738,-591.3703 867.2179,-572.6466 781.9863,-563.2873"/>
</g>
<!-- k_akun -->
<g id="node26" class="node">
<title>k_akun</title>
<ellipse fill="none" stroke="#000000" cx="953.3717" cy="-419.7262" rx="54" ry="15.68"/>
<text text-anchor="middle" x="953.3717" y="-416.1262" font-family="Helvetica,sans-Serif" font-size="12.00" fill="#000000">akun</text>
</g>
<!-- buku_kas&#45;&#45;k_akun -->
<g id="edge20" class="edge">
<title>buku_kas&#45;&#45;k_akun</title>
<path fill="none" stroke="#000000" d="M1722.6961,-614.001C1568.8598,-575.1532 1130.787,-464.5282 994.4127,-430.0901"/>
</g>
<!-- k_in -->
<g id="node27" class="node">
<title>k_in</title>
<ellipse fill="none" stroke="#000000" cx="1069.324" cy="-56.0046" rx="56.2152" ry="15.68"/>
<text text-anchor="middle" x="1069.324" y="-52.4046" font-family="Helvetica,sans-Serif" font-size="12.00" fill="#000000">penerimaan</text>
</g>
<!-- buku_kas&#45;&#45;k_in -->
<g id="edge21" class="edge">
<title>buku_kas&#45;&#45;k_in</title>
<path fill="none" stroke="#000000" d="M1754.3789,-609.5908C1647.1699,-522.9563 1186.5497,-150.7335 1087.9484,-71.0548"/>
</g>
<!-- k_out -->
<g id="node28" class="node">
<title>k_out</title>
<ellipse fill="none" stroke="#000000" cx="813.1575" cy="-293.6622" rx="58.4481" ry="15.68"/>
<text text-anchor="middle" x="813.1575" y="-290.0622" font-family="Helvetica,sans-Serif" font-size="12.00" fill="#000000">pengeluaran</text>
</g>
<!-- buku_kas&#45;&#45;k_out -->
<g id="edge22" class="edge">
<title>buku_kas&#45;&#45;k_out</title>
<path fill="none" stroke="#000000" d="M1724.5713,-609.5683C1551.1941,-549.4738 996.7293,-357.2902 849.3954,-306.2226"/>
</g>
<!-- k_saldo -->
<g id="node29" class="node">
<title>k_saldo</title>
<ellipse fill="none" stroke="#000000" cx="1106.393" cy="-424.6065" rx="54" ry="15.68"/>
<text text-anchor="middle" x="1106.393" y="-421.0065" font-family="Helvetica,sans-Serif" font-size="12.00" fill="#000000">saldo</text>
</g>
<!-- buku_kas&#45;&#45;k_saldo -->
<g id="edge23" class="edge">
<title>buku_kas&#45;&#45;k_saldo</title>
<path fill="none" stroke="#000000" d="M1722.7134,-611.2853C1591.24,-571.463 1257.0673,-470.2446 1144.2548,-436.0746"/>
</g>
<!-- k_ket -->
<g id="node30" class="node">
<title>k_ket</title>
<ellipse fill="none" stroke="#000000" cx="923.9238" cy="-620.8027" rx="54" ry="15.68"/>
<text text-anchor="middle" x="923.9238" y="-617.2027" font-family="Helvetica,sans-Serif" font-size="12.00" fill="#000000">keterangan</text>
</g>
<!-- buku_kas&#45;&#45;k_ket -->
<g id="edge24" class="edge">
<title>buku_kas&#45;&#45;k_ket</title>
<path fill="none" stroke="#000000" d="M1722.432,-625.2893C1640.8852,-621.9243 1481.9122,-616.0264 1346.7444,-614.9672 1214.2374,-613.9289 1058.387,-617.2558 977.9849,-619.3084"/>
</g>
<!-- operasional -->
<g id="node5" class="node">
<title>operasional</title>
<polygon fill="#f9f9f9" stroke="#000000" points="2240.8996,-663.6406 2132.8996,-663.6406 2132.8996,-627.6406 2240.8996,-627.6406 2240.8996,-663.6406"/>
<text text-anchor="middle" x="2186.8996" y="-641.4406" font-family="Helvetica,sans-Serif" font-size="14.00" fill="#000000">operasional</text>
</g>
<!-- o_id -->
<g id="node31" class="node">
<title>o_id</title>
<ellipse fill="none" stroke="#000000" cx="1346.1085" cy="-632.4057" rx="66.4649" ry="15.68"/>
<text text-anchor="middle" x="1346.1085" y="-628.8057" font-family="Helvetica,sans-Serif" font-size="12.00" fill="#000000">id_operasional</text>
</g>
<!-- operasional&#45;&#45;o_id -->
<g id="edge25" class="edge">
<title>operasional&#45;&#45;o_id</title>
<path fill="none" stroke="#000000" d="M2132.7792,-646.284C2063.5072,-647.0724 1939.7852,-648.3627 1833.9182,-648.843 1783.0742,-649.0736 1770.3503,-649.9612 1719.5182,-648.843 1611.1766,-646.4595 1485.2816,-640.1908 1410.8398,-636.1201"/>
</g>
<!-- o_bln -->
<g id="node32" class="node">
<title>o_bln</title>
<ellipse fill="none" stroke="#000000" cx="2068.9694" cy="-113.2171" rx="54" ry="15.68"/>
<text text-anchor="middle" x="2068.9694" y="-109.6171" font-family="Helvetica,sans-Serif" font-size="12.00" fill="#000000">bulan</text>
</g>
<!-- operasional&#45;&#45;o_bln -->
<g id="edge26" class="edge">
<title>operasional&#45;&#45;o_bln</title>
<path fill="none" stroke="#000000" d="M2182.9083,-627.6209C2164.7021,-545.4248 2089.681,-206.7246 2072.4903,-129.1134"/>
</g>
<!-- o_biaya -->
<g id="node33" class="node">
<title>o_biaya</title>
<ellipse fill="none" stroke="#000000" cx="1511.7244" cy="-671.0123" rx="57.5508" ry="15.68"/>
<text text-anchor="middle" x="1511.7244" y="-667.4123" font-family="Helvetica,sans-Serif" font-size="12.00" fill="#000000">nama_biaya</text>
</g>
<!-- operasional&#45;&#45;o_biaya -->
<g id="edge27" class="edge">
<title>operasional&#45;&#45;o_biaya</title>
<path fill="none" stroke="#000000" d="M2132.7885,-647.674C2007.3064,-652.3894 1697.4151,-664.0344 1568.9459,-668.862"/>
</g>
<!-- o_akun -->
<g id="node34" class="node">
<title>o_akun</title>
<ellipse fill="none" stroke="#000000" cx="1196.3351" cy="-584.4619" rx="54" ry="15.68"/>
<text text-anchor="middle" x="1196.3351" y="-580.8619" font-family="Helvetica,sans-Serif" font-size="12.00" fill="#000000">akun</text>
</g>
<!-- operasional&#45;&#45;o_akun -->
<g id="edge28" class="edge">
<title>operasional&#45;&#45;o_akun</title>
<path fill="none" stroke="#000000" d="M2132.8958,-638.3497C2063.7462,-629.3121 1940.1527,-614.1615 1833.9182,-606.443 1618.2331,-590.7722 1360.6673,-586.219 1250.5701,-584.9404"/>
</g>
<!-- o_nom -->
<g id="node35" class="node">
<title>o_nom</title>
<ellipse fill="none" stroke="#000000" cx="1305.2287" cy="-369.0414" rx="54" ry="15.68"/>
<text text-anchor="middle" x="1305.2287" y="-365.4414" font-family="Helvetica,sans-Serif" font-size="12.00" fill="#000000">nominal</text>
</g>
<!-- operasional&#45;&#45;o_nom -->
<g id="edge29" class="edge">
<title>operasional&#45;&#45;o_nom</title>
<path fill="none" stroke="#000000" d="M2132.7439,-628.6508C1968.8313,-577.2279 1480.8269,-424.1304 1342.2804,-380.6653"/>
</g>
<!-- o_ket -->
<g id="node36" class="node">
<title>o_ket</title>
<ellipse fill="none" stroke="#000000" cx="1621.1832" cy="-367.7109" rx="54" ry="15.68"/>
<text text-anchor="middle" x="1621.1832" y="-364.1109" font-family="Helvetica,sans-Serif" font-size="12.00" fill="#000000">keterangan</text>
</g>
<!-- operasional&#45;&#45;o_ket -->
<g id="edge30" class="edge">
<title>operasional&#45;&#45;o_ket</title>
<path fill="none" stroke="#000000" d="M2150.2173,-627.619C2044.8122,-575.8348 1742.6447,-427.3835 1649.1177,-381.4347"/>
</g>
<!-- pendapatan_harian -->
<g id="node6" class="node">
<title>pendapatan_harian</title>
<polygon fill="#f9f9f9" stroke="#000000" points="2266.5506,-1346.5418 2130.3211,-1346.5418 2130.3211,-1310.5418 2266.5506,-1310.5418 2266.5506,-1346.5418"/>
<text text-anchor="middle" x="2198.4359" y="-1324.3418" font-family="Helvetica,sans-Serif" font-size="14.00" fill="#000000">pendapatan_harian</text>
</g>
<!-- p_id -->
<g id="node37" class="node">
<title>p_id</title>
<ellipse fill="none" stroke="#000000" cx="1250.235" cy="-1278.0457" rx="67.3826" ry="15.68"/>
<text text-anchor="middle" x="1250.235" y="-1274.4457" font-family="Helvetica,sans-Serif" font-size="12.00" fill="#000000">id_pendapatan</text>
</g>
<!-- pendapatan_harian&#45;&#45;p_id -->
<g id="edge31" class="edge">
<title>pendapatan_harian&#45;&#45;p_id</title>
<path fill="none" stroke="#000000" d="M2130.2436,-1324.9103C1954.7626,-1315.5651 1489.2654,-1290.7752 1316.2312,-1281.5604"/>
</g>
<!-- p_tgl -->
<g id="node38" class="node">
<title>p_tgl</title>
<ellipse fill="none" stroke="#000000" cx="1360.7867" cy="-1058.1022" rx="54" ry="15.68"/>
<text text-anchor="middle" x="1360.7867" y="-1054.5022" font-family="Helvetica,sans-Serif" font-size="12.00" fill="#000000">tanggal</text>
</g>
<!-- pendapatan_harian&#45;&#45;p_tgl -->
<g id="edge32" class="edge">
<title>pendapatan_harian&#45;&#45;p_tgl</title>
<path fill="none" stroke="#000000" d="M2142.5011,-1310.483C1983.0596,-1259.0064 1529.2879,-1112.5038 1397.2476,-1069.8738"/>
</g>
<!-- p_in -->
<g id="node39" class="node">
<title>p_in</title>
<ellipse fill="none" stroke="#000000" cx="1204.56" cy="-970.5959" rx="56.2492" ry="15.68"/>
<text text-anchor="middle" x="1204.56" y="-966.9959" font-family="Helvetica,sans-Serif" font-size="12.00" fill="#000000">pendapatan</text>
</g>
<!-- pendapatan_harian&#45;&#45;p_in -->
<g id="edge33" class="edge">
<title>pendapatan_harian&#45;&#45;p_in</title>
<path fill="none" stroke="#000000" d="M2148.1262,-1310.4227C1972.3298,-1247.1094 1388.0827,-1036.6919 1239.281,-983.1007"/>
</g>
<!-- p_cs -->
<g id="node40" class="node">
<title>p_cs</title>
<ellipse fill="none" stroke="#000000" cx="1145.7387" cy="-1118.6943" rx="54" ry="15.68"/>
<text text-anchor="middle" x="1145.7387" y="-1115.0943" font-family="Helvetica,sans-Serif" font-size="12.00" fill="#000000">cs</text>
</g>
<!-- pendapatan_harian&#45;&#45;p_cs -->
<g id="edge34" class="edge">
<title>pendapatan_harian&#45;&#45;p_cs</title>
<path fill="none" stroke="#000000" d="M2130.2579,-1310.5369C2014.4275,-1280.4035 1771.5225,-1219.1816 1563.5231,-1179.6902 1431.7366,-1154.6688 1274.8751,-1134.2512 1196.1312,-1124.6413"/>
</g>
<!-- p_cu -->
<g id="node41" class="node">
<title>p_cu</title>
<ellipse fill="none" stroke="#000000" cx="1561.1949" cy="-916.6601" rx="54" ry="15.68"/>
<text text-anchor="middle" x="1561.1949" y="-913.0601" font-family="Helvetica,sans-Serif" font-size="12.00" fill="#000000">cu</text>
</g>
<!-- pendapatan_harian&#45;&#45;p_cu -->
<g id="edge35" class="edge">
<title>pendapatan_harian&#45;&#45;p_cu</title>
<path fill="none" stroke="#000000" d="M2170.2322,-1310.3123C2062.8043,-1240.8761 1680.3958,-993.7058 1583.5912,-931.136"/>
</g>
<!-- p_tot -->
<g id="node42" class="node">
<title>p_tot</title>
<ellipse fill="none" stroke="#000000" cx="1344.0887" cy="-846.3027" rx="66.9" ry="15.68"/>
<text text-anchor="middle" x="1344.0887" y="-842.7027" font-family="Helvetica,sans-Serif" font-size="12.00" fill="#000000">total_customer</text>
</g>
<!-- pendapatan_harian&#45;&#45;p_tot -->
<g id="edge36" class="edge">
<title>pendapatan_harian&#45;&#45;p_tot</title>
<path fill="none" stroke="#000000" d="M2166.5037,-1310.5176C2029.732,-1233.3163 1494.6423,-931.2832 1370.0953,-860.9823"/>
</g>
<!-- memiliki&#45;&#45;capsters -->
<g id="edge38" class="edge">
<title>memiliki&#45;&#45;capsters</title>
<path fill="none" stroke="#000000" d="M1083.3911,-1546.4278C1155.78,-1544.9995 1280.5852,-1542.537 1351.918,-1541.1295"/>
<text text-anchor="middle" x="1211.8283" y="-1547.9708" font-family="Times,serif" font-size="14.00" fill="#000000">M</text>
</g>
<!-- mencatat_kas&#45;&#45;buku_kas -->
<g id="edge40" class="edge">
<title>mencatat_kas&#45;&#45;buku_kas</title>
<path fill="none" stroke="#000000" d="M1195.9556,-848.7367C1295.9377,-810.674 1608.9202,-691.5229 1729.0835,-645.7773"/>
<text text-anchor="middle" x="1448.7293" y="-754.3381" font-family="Times,serif" font-size="14.00" fill="#000000">M</text>
</g>
<!-- mencatat_op&#45;&#45;operasional -->
<g id="edge42" class="edge">
<title>mencatat_op&#45;&#45;operasional</title>
<path fill="none" stroke="#000000" d="M1883.2712,-972.7001C1937.2838,-914.5193 2113.9487,-724.2212 2169.8073,-664.052"/>
<text text-anchor="middle" x="2019.6247" y="-823.3217" font-family="Times,serif" font-size="14.00" fill="#000000">M</text>
</g>
<!-- mencatat_ph&#45;&#45;pendapatan_harian -->
<g id="edge44" class="edge">
<title>mencatat_ph&#45;&#45;pendapatan_harian</title>
<path fill="none" stroke="#000000" d="M1608.6608,-1213.4725C1715.5808,-1234.3334 1999.1461,-1289.659 2130.2266,-1315.2337"/>
<text text-anchor="middle" x="1854.1612" y="-1266.7854" font-family="Times,serif" font-size="14.00" fill="#000000">M</text>
</g>
<!-- menghasilkan&#45;&#45;pendapatan_harian -->
<g id="edge46" class="edge">
<title>menghasilkan&#45;&#45;pendapatan_harian</title>
<path fill="none" stroke="#000000" d="M1840.6777,-1495.5228C1911.4513,-1462.4897 2082.772,-1382.5271 2159.795,-1346.5772"/>
<text text-anchor="middle" x="1991.6705" y="-1426.3438" font-family="Times,serif" font-size="14.00" fill="#000000">M</text>
</g>
</g>
</svg>
